<svg id="Composant_17_1" data-name="Composant 17 – 1" xmlns="http://www.w3.org/2000/svg" width="12.571" height="31.067" viewBox="0 0 12.571 31.067">
  <path id="Tracé_1" data-name="Tracé 1" d="M93.748,180.137a4.262,4.262,0,1,1-4.264,4.249A4.254,4.254,0,0,1,93.748,180.137Zm1.814,4.267a1.808,1.808,0,0,0-1.812-1.829,1.843,1.843,0,0,0-1.828,1.829,1.871,1.871,0,0,0,1.813,1.824A1.836,1.836,0,0,0,95.563,184.4Z" transform="translate(-87.597 -168.937)" fill="#211f1e"/>
  <path id="Tracé_2" data-name="Tracé 2" d="M97.023,156.853l-1.642,1.6-4.62-4.621-4.546,4.591L84.49,156.7l6.189-6.189Z" transform="translate(-84.49 -150.509)" fill="#211f1e"/>
  <path id="Tracé_3" data-name="Tracé 3" d="M95.444,211.394l1.748,1.706-6.345,6.345L84.7,213.261l1.644-1.645,4.444,4.445Z" transform="translate(-84.621 -188.379)" fill="#211f1e"/>
</svg>
